<svg xmlns="http://www.w3.org/2000/svg" width="533.333" height="533.333" version="1" viewBox="0 0 400 400"><path d="M204 25.2c-3 .4-6.2.9-7 1.1-.8.2-3.7.7-6.5 1.1-6 .9-15.8 4.3-20 6.8-1.6 1-3.6 1.8-4.2 1.8-1.7 0-11.9 6.5-16.4 10.4-1.9 1.7-5.1 4.5-7.1 6.1-4.5 4-13.8 17-13.8 19.4 0 1.1-.4 2.2-.9 2.5-.5.3-1.2 1.8-1.6 3.3-.6 2.8-2.8 8.2-4.6 11.5-.5 1-.9 2.7-.9 3.8 0 1.1-.4 2.8-.9 3.8-1.2 2.1-4.1 14.9-4.1 17.7 0 1.2-.5 2.6-1.2 3.3-1.6 1.6-2.4 22.2-.9 25 .7 1.4.8 2.3.1 2.7-.5.3-1 .1-1-.6 0-.9-.3-1-1.1-.2-1.2 1.2-1.2 10.7-.1 16.8.6 3.1 1.2 3.9 2.6 3.7 1.7-.3 1.8.2 1.4 5.3-.3 3.1-.1 5.8.4 6.1.4.3.8 1.5.8 2.7 0 2.5 3.2 10.7 4.2 10.7.3 0 1.2-1.3 1.9-2.9 1.3-2.8 4.1-4.6 5.3-3.3 1.2 1.1.5 4.2-1.6 7.9-2.1 3.4-2.3 3.6-2.6 1.5-.2-1.2-.8-2.2-1.3-2.2-1.3 0-1.2.5 1.2 5.8 2.6 5.8 4.7 8.2 6.9 8.2 1 0 2.1.8 2.5 1.7.7 1.7.8 1.6 1.5-.2.8-1.8.9-1.8.9.5-.1 3.2 1.8 10.4 3.8 15 .8 1.9 2 4.6 2.5 6 .6 1.4 1.6 3.8 2.3 5.5 5.3 12.3 6.2 15.2 6.8 20.1.4 3.6.1 4.3-2.4 6-1.6 1-2.9 2.8-2.9 3.9-.1 1.9-.1 1.9-1.4.2-1.2-1.6-1.4-1.5-1.9 1.3-.4 1.8-1.3 3-2.2 3-1 0-1.5.9-1.5 2.6 0 2-.4 2.5-1.6 2-.8-.3-1.3-.2-1 .3.8 1.2-1.4 2.9-9.9 7.3-17.1 8.8-32.3 17-36.5 19.8-.8.5-4.6 2.6-8.4 4.6-3.7 1.9-7.3 4-8 4.5-.6.6-8.1 5.6-16.6 11.2-8.6 5.6-16.9 11.4-18.5 12.9-1.6 1.6-3.3 2.8-3.7 2.8-.3 0-3 2.5-6 5.6-5.1 5.3-13.1 17.1-16.6 24.4-.9 1.9-2.2 3.9-2.8 4.5-1.4 1.2-7.4 15-7.4 17.1 0 .8-.4 1.4-1 1.4-.5 0-1 2.5-1 5.5v5.5h205.8l.6-2.3.7-2.2.9 2.3.9 2.2H400V334.3l-4.4-4.1c-2.4-2.2-5.9-4.8-7.7-5.8-1.9-.9-3.7-2.1-4-2.6-.3-.5-1.7-1.7-3.1-2.6-1.4-.9-7.4-5.1-13.4-9.2-12.6-8.6-14.9-10-22.4-13.5-3-1.5-6.6-3.2-8-4-1.4-.7-4.9-2.3-7.7-3.4s-7.2-3-9.9-4.2c-9.6-4.2-11.4-5-18-7.5-5.7-2.1-13.6-6.1-19.6-9.8-1.9-1.1-4-5.1-4.4-8.1-.7-4.9-1.9-8.4-4.9-13-1.7-2.8-3.2-5.9-3.3-7 0-2 4.9-15.8 7.5-20.8.8-1.5 1.1-2.7.7-2.7-.3 0-.2-.6.4-1.3.5-.6 1.3-2.8 1.6-4.7 1.2-5.8 2.7-8 5.6-8 1.5 0 3.5-1 4.6-2.3 3-3.5 3.3-4.2 2.4-5.7-.7-1.1-1.3-.9-2.9 1.1-1.8 2-2.2 2.2-3.1.9-.9-1.4-.4-11.5.7-13.3.3-.5 1.4-.1 2.4.9 1.7 1.5 1.9 1.5 1.9.1 0-.9.9-2.1 1.9-2.7 1.1-.5 2.2-1.9 2.6-2.9.4-1.2 1.2-1.8 2.1-1.4 1 .4 1.2 0 .8-1.2-.4-.9-.1-2.7.6-4.1 1.1-1.9 1.1-2.7.2-3.6-1.9-1.9-1.4-5.2 1.3-9.2 1.4-2 2.5-4.1 2.5-4.6 0-.6.5-1 1-1 1.4 0 1.2-9.6-.2-12.2-1.6-2.8-4-4.8-5-4.2-.8.5-1.3-5.5-1-10.6.4-7.3-8.9-40.6-13.9-50-6.6-12.2-10.8-18.1-18.3-25.6-6.9-6.9-20.5-16.7-24.9-17.9-1.2-.3-3.1-1-4.2-1.4-14.9-6.1-21.7-7.4-32.5-5.9zm1.4 33.5c.3.4 2.5.8 4.9.9 2.3.1 8.3.6 13.2 1 5 .4 10.7.7 12.7.6 2-.1 4 .3 4.3.8.3.6 1.4 1 2.5 1 1 0 2 .6 2.3 1.4.4.9 2 1.4 4.4 1.4 2.7 0 4.1.6 5.1 2.1.8 1.2 2 2.1 2.7 2.1 2.3 0 4.7 8.5 5.1 18 .1 3 .3 5.7.3 5.9.1.2.8-.3 1.7-1 1.4-1.1 1.8-1 3 .6.9 1.2 1.1 2.1.4 2.3-1.6.6-1.2 3.2.5 3.2.8 0 1.5.4 1.5 1 0 1.7-1.6 1.1-4.4-1.7-1.6-1.6-2.4-2-2-1 .3 1 .1 1.7-.5 1.7-1.5 0-1.4 3.3.1 4.8.9.9.9 1.2 0 1.2s-1.1 1.4-.9 4.5c.3 4.2-.6 6-1.6 3.2-.4-.9-.7-.9-1.7 0-1.1 1-.9 1.6 1 3.1 1.5 1.2 1.9 2.1 1.2 2.5-.6.4-1.6.1-2.4-.6-4.5-4.3-11.9-6.7-14.4-4.6-.8.7-4.3 1.4-7.7 1.6-8.6.5-12.7 1.2-12.7 2.3 0 .5-1.2 1.3-2.7 1.6-1.6.4-4.1 1.6-5.8 2.9-1.6 1.2-3.8 2.5-4.8 2.8-1.7.6-1.8 1.4-1.2 7 .4 3.4.8 10.5.9 15.7.1 8.9.2 9.5 2.3 9.8 1.4.2 2.3-.3 2.8-1.7.7-2.4-.2-6.1-1.6-6.1-.5 0-.9-.7-.9-1.7 0-1.5.1-1.5 1.9.1 2.2 2 5.8 1.2 4-1-1.6-1.9-1-2.3 2.9-1.7 3.4.6 4.2 2 1.7 3-1.2.4-1 .9 1.1 2 1.5.7 3.4 1.1 4.1.8.8-.2 1.2-.1.8.4-.6 1.1 13 1.9 17.1 1 2.3-.5 2.6-.7 1.2-1.3-1-.5-1.4-1.4-1.1-2.3.4-1 .8-1.1 1.3-.3.4.7 2.4 1.4 4.5 1.7 2.6.3 3.5.2 3.1-.6-.8-1.3 5.6-1.6 6.8-.4.5.5 2.9.8 5.4.8 3.9 0 4.7.3 4.6 1.7-.1 1 .2 1.5.7 1.2.5-.3.9.8.9 2.5 0 2.2-.4 2.9-1.4 2.5-.8-.3-1.6.4-1.9 1.7-.7 2.8.1 4.2 1.9 3.5 1.6-.6 1.7-.4.8 1.8-.4 1.1-1.1 1.3-2.9.6-2-.8-2.3-.6-1.8.7.4.9 1.5 2.5 2.5 3.5 2.2 2.2 2.3 3.8.2 3.8-1.1 0-1.4-.6-.9-2 .8-2.5-2-2.7-5.3-.4-1.3.9-2.2 1.1-2.2.4 0-.6-.4-.8-1-.5-.5.3-1 1.7-1 3.1 0 1.9.5 2.4 2.8 2.4 2.5.1 2.6.1.7 1.2-1.1.6-2.4 1.8-2.9 2.6-.7 1.2-1 1.2-1.7.1-.6-1.1-1.3-.8-3.3 1-1.4 1.3-2.3 2.8-1.9 3.4.4.6-.8.7-3.3.3-3.6-.7-13.8-7.4-15.7-10.3-.4-.7-1.4-1.3-2.2-1.3-.8 0-1.8-.7-2.2-1.4-1.2-2.1-12.2-6.8-14.2-6.1-1.4.4-1.7 1.6-1.7 5.5.1 2.8-.2 5-.6 5-.5 0-.8.8-.8 1.8 0 2.9-5.7 4.6-16 4.7-5.2.1-10.5.5-11.8.9-5 1.7-8-4.8-4.6-9.9.9-1.4 1.4-2.5 1-2.5-1 0-17.1 16.2-17.1 17.1 0 .5-1.5 1.8-3.3 2.9-2.5 1.5-4.3 1.9-6.8 1.4-2.7-.5-3.8-.2-4.8 1.1-1.1 1.6-1.4 1.6-2.8.1-.9-.8-1.8-2.1-2-2.7-.2-.6-2.5-1.1-5-1.1-3.5 0-4.8-.4-5.1-1.6-.3-1.3-.6-1.2-1.4.8-.9 2.1-.8 2.7.8 3.4 1.4.7 1.7 1.5 1.2 3.4-.4 1.9 0 2.9 1.8 4.3 1.3 1 2 2.1 1.6 2.5-.4.4-1.5-.1-2.6-1-1.5-1.4-2-1.4-2.5-.4-.3.7-.4.3-.2-1 .3-1.4-.1-2.5-1-2.9-.8-.3-1.4-1.7-1.4-3.2 0-1.5-.5-3.2-1-3.7-.8-.8-.7-1.9.1-3.8 1.1-2.3 1-2.9-.9-4.9-2.2-2.4-3-5.7-1.3-5.7.5 0 1.3.9 1.6 2 .3 1.1 1.3 2 2.1 2 2.3 0 0-3.5-3.6-5.7-3.2-1.9-3.3-2.3-3.2-14.8.1-15.9.6-21.3 2.3-26 1.1-2.8 1.9-5.7 1.9-6.6 0-.9.7-2.2 1.5-2.9.8-.6 1.4-2.8 1.4-4.8-.1-25.7 5.5-45.3 14.5-50.6 7.7-4.5 17.7-6.8 30.9-7.1 15-.4 22.8-1.2 24.1-2.5 1.2-1.2 2-1.3 3-.3zm45.1 68.2c-.3.5-.1 1.2.5 1.6.5.3 1-.1 1-.9 0-.9.9-1.6 2.1-1.6 1.1 0 1.8.4 1.5.9-.3.5.2 1.2 1.2 1.6 1.5.6 1.4.8-.8 1.8-1.4.5-2.7 1-3 .9-.3 0-3.5-.4-7-.7-3.6-.4-6.6-.8-6.8-.9-.1-.2 0-1.1.4-2 .5-1.2 1.9-1.6 6.1-1.6 3.1 0 5.2.4 4.8.9zm25.7 8.6c0 .5-.5 1.1-1.1 1.3-.6.2-1.1-.4-1.1-1.3s.5-1.5 1.1-1.3c.6.2 1.1.8 1.1 1.3zM238 146c0 .5.9 1 1.9 1 1.1 0 2.3.4 2.6 1 .4.6-1.3 1-4.4 1-5.5 0-7.5-1.5-3.9-2.9 3.1-1.3 3.8-1.3 3.8-.1zm-120.7 14.1c-.5.5-.7-.7-.4-2.9.5-3.4.6-3.5.9-.8.2 1.6 0 3.2-.5 3.7zm3.7-.1c0 1.1-.4 2-1 2-.5 0-1-.9-1-2s.5-2 1-2c.6 0 1 .9 1 2zm175.6 9.7c-.5 3.6-1.3 5.3-3.9 7.4-1.7 1.5-3.4 2.6-3.5 2.4-.2-.2.3-1.8 1.2-3.7.8-1.8 2.2-5 3-7.1 2.2-5.4 4-4.9 3.2 1zm-72.3 4.3c1.4 2.7 1.4 3-.4 3.5-2.8.9-5.9-1.2-5.9-4 0-3.8 4.4-3.4 6.3.5zm6.4 14.2c-.3.8-.6.5-.6-.6-.1-1.1.2-1.7.5-1.3.3.3.4 1.2.1 1.9zm4.5 1c-.9.9-.5 1.7 1.4 3.5 1.4 1.3 2.2 2.7 1.9 3.3-.6 1-3.5.2-3.5-1 0-.5-.7-1.6-1.6-2.5-1.4-1.4-1.5-2-.4-4.1.9-1.7 1.7-2.1 2.4-1.4.7.7.6 1.4-.2 2.2zM142 193c0 .5-.7.7-1.5.4-.8-.4-1.5-.8-1.5-1 0-.2.7-.4 1.5-.4s1.5.4 1.5 1zm34 2c0 .5-.4 1-1 1-.5 0-1-.5-1-1 0-.6.5-1 1-1 .6 0 1 .4 1 1zm52 .5c0 .8-.4 1.5-1 1.5-.5 0-1-.7-1-1.5s.5-1.5 1-1.5c.6 0 1 .7 1 1.5zm-97.4 3.9c-.3 1.1-.5 2.3-.6 2.6-.1.6-2.9-4.2-3-5.2 0-.3.9-.4 2-.1 1.4.4 1.8 1.2 1.6 2.7zm91.1-1.4c-.3 1.3 0 2 .9 2 .8 0 1.4-.5 1.4-1.2 0-2.5 1.3.3 1.4 3l.1 2.8h-7.2c-4-.1-7.3-.4-7.3-.7 0-.4 1.3-1.2 2.9-1.9 1.6-.6 3.9-2.2 5.2-3.6 2.7-2.9 3.3-3 2.6-.4zm23 1.6c-.3.3-1.2.4-1.9.1-.8-.3-.5-.6.6-.6 1.1-.1 1.7.2 1.3.5zm9.7 7.3c-.2 9-1.3 15.2-2.9 17.1-.7.8-2.3 4.5-3.5 8.2-1.7 5.2-2.6 6.8-4.1 6.8-1.5 0-1.8.7-1.7 3.5.1 4-.9 5.6-2.2 3.5-.8-1.3-1-1.2-1 .2 0 .9-.6 2.1-1.3 2.5-.7.4-1.8 2-2.4 3.5-.9 2-2 2.8-3.8 2.8-1.7 0-2.5.6-2.5 1.7-.1 2.5-3.1 6.2-3.7 4.6-.3-.9-1.1-.6-2.6.7-2.3 2.2-6.7 2.6-8.5.8-.9-.9-1.2-.9-1.2 0 0 .7-.5 1.2-1.1 1.2-.6 0-1.8.9-2.7 2-1.6 1.9-1.9 1.9-4.6.5-2.1-1.1-3.2-1.2-4.1-.5-.8.7-1.5.7-1.9.1-.3-.5-2.8-1.2-5.5-1.6-2.7-.4-5.7-1.4-6.8-2.3-1-.9-2.5-1.8-3.2-2-1.6-.3-4.8-4-5.7-6.5-.3-1.1-1.5-2.8-2.5-3.8s-1.9-3-1.9-4.3c0-1.3-.7-2.9-1.5-3.6-.8-.7-1.5-1.7-1.5-2.2 0-.5-1.8-3.6-4-6.9-2.2-3.3-4-6.5-4-7 0-.6-1.4-3-3-5.5-1.7-2.4-2.8-4.4-2.4-4.4.4 0 0-.8-1-1.9-1.6-1.7-1.6-2 .1-5 2.1-3.7 3.3-3.5 4.6.5 1.3 3.8 1.6 4.1 2.7 2.4.6-1 1.2-1.1 2.2-.3.7.6 2.4 1.3 3.8 1.7 2.8.7 8.5 5.4 7.7 6.3-.3.3.1 1.2.9 2 .8.9 1.8 2.8 2.1 4.4.5 2.8 2 3.5 6.1 3 .6-.1 1.2.5 1.2 1.4 0 .8-.4 1.5-.9 1.5-.9 0-.8 5.7.2 6.6.3.3.4 1.1.1 1.8-.3.7 1.1 1.6 3.3 2.3 2.1.6 6.8 2.2 10.6 3.6 5.8 2.2 7.2 2.4 9.9 1.4 1.8-.7 4-2 5-2.9 1.2-1.2 2.7-1.6 4.7-1.2 1.6.3 3.1.1 3.5-.5.4-.5 1.3-.8 2-.5 1.5.6 8.6-7.7 8.6-10 0-.9.9-2.4 2-3.3 2.2-2 2.6-4.9.8-5.6-1-.3-.9-.8.3-1.8.9-.8 2-3.1 2.3-5.2.5-2.6 1.4-4.1 3.1-4.9 2.6-1.1 3.9-5.6 2.3-7.6-.8-.9-.6-1.2.4-1.2 1.5 0 3.7 3.9 3.9 6.8 0 1.4.2 1.4.6.2.3-.8 1.2-2.9 2-4.7.8-1.8 1.2-3.7.8-4.2-.3-.6 0-1.1.7-1.1 1.1 0 1.3 1.7 1.2 6.9zm-62.3-2.9c.6 0 .7.4.4 1-.3.5-2 1-3.7 1-2.6 0-2.9-.2-1.8-1.5.7-.9 2-1.3 2.7-1 .8.3 1.9.5 2.4.5zm-24.1 2c0 1.1-.7 2-1.5 2-2.7 0-1.8-3 1.3-3.9.1-.1.2.8.2 1.9zm46.5 7c.3.6 1.6.5 3.2-.3 2.1-.9 2.7-.9 3.1.1.2.6 1.1 1.2 2 1.2 1.5 0 1.5.1 0 1.6-.9.9-2.8 1.6-4.2 1.6-1.4 0-3.1.7-3.7 1.4-1.8 2.2-18.5 2-19.3-.2-.5-1.3-.9-1.4-2.1-.4-.8.7-2.3.9-3.2.5-1.7-.6-1.7-.7 0-1.6.9-.6 1.5-1.4 1.2-2-.3-.5.1-.6 1-.3.8.4 2.2.1 3-.6 1-.8 3.1-1.1 5.8-.7 2.3.3 5.1.1 6.2-.3 2.8-1.2 6.3-1.2 7 0zm-28.1 9.9c.3.5-.1 1.1-.9 1.4-.9.4-1.2.1-.8-.9.6-1.6 1-1.7 1.7-.5zm36.6-.5c0 .3-.4.8-1 1.1-.5.3-1 .1-1-.4 0-.6.5-1.1 1-1.1.6 0 1 .2 1 .4zm-4 2.3c0 .3-.7.3-1.5-.1-1.7-.6-2 1.5-.4 3.1 1.2 1.2-5.9 3.3-11.6 3.3-3.1 0-6.5-1.7-6.5-3.3 0-.3 2.1-.8 4.8-1.1 5.5-.7 6.8-1 10.2-2.3 2.3-1 5-.7 5 .4zm-25 1.5c0 .4-1.2.8-2.6.8-1.4 0-2.3-.4-2-.8.2-.4 1.4-.8 2.5-.8 1.2 0 2.1.4 2.1.8zm0 102.8c0 .5-.5 1-1.1 1-.5 0-.7-.5-.4-1 .3-.6.8-1 1.1-1 .2 0 .4.4.4 1zm4 2.5c1.1 1.3 1 1.4-.4.9-.9-.3-1.6-1-1.6-1.5 0-1.3.6-1.1 2 .6zm11.5-.5c.3.5.1 1-.4 1-.6 0-1.1-.5-1.1-1 0-.6.2-1 .4-1 .3 0 .8.4 1.1 1zm3.5 1.6c0 .8-.5 1.2-1 .9-.6-.4-.8-1.1-.5-1.6.9-1.4 1.5-1.1 1.5.7zm-11 1.4c0 .5-.4 1-1 1-.5 0-1-.5-1-1 0-.6.5-1 1-1 .6 0 1 .4 1 1zm15.4 0c1.4.5 2.6 1.6 2.6 2.4 0 .8.6 1.7 1.3 2 .6.3 0 .3-1.5.1-3-.4-4.5 1.9-2.7 4.1.9 1.2.7 1.4-1.2 1.2-2.7-.3-5.9-2.7-5.9-4.4 0-.7 1.2-1.5 2.6-1.8 1.9-.5 2.4-1.1 1.9-2.6-.7-2.3-.6-2.3 2.9-1zm-8.4 4.1c0 1.5-2 1-2.6-.6-.5-1.2-.9-1.3-2-.4-1.9 1.6-3 .3-1.5-1.5 1.1-1.4 1.6-1.3 3.7.1 1.3.8 2.4 1.9 2.4 2.4zm-10.9 16.3c2.6 1.5 5.1 2.5 5.5 2.4 1.6-.5 5.1 2.6 6.8 5.9.9 1.8 2.2 3.3 2.9 3.3.7 0 .5.5-.4 1-2.2 1.3-7.6-.4-9.9-3-.9-1.1-2.3-2-2.9-2-.7 0-1-.7-.7-1.8.4-1.3-.4-2.3-3.2-3.7-4.1-2.1-9.3-7.5-8.5-8.8.3-.5 1.7.2 3.2 1.6 1.4 1.3 4.7 3.6 7.2 5.1zm5.8 16.6c1.7 0 3.1.3 3.1.6 0 1-12 12.1-12.5 11.6-.2-.2.5-1.4 1.6-2.6 1.2-1.1 2.7-3.3 3.5-4.9 1.3-2.4 1.3-2.7-.1-2.7-.9 0-1.4.3-1.2.7.3.5-.8.8-2.3.8-2.9 0-2.9-.6-.2-3.7 1.1-1.3 1.9-1.5 3.3-.8 1 .6 3.1 1 4.8 1zm16.8 3.8c1.2.8 1.6 2.4 1.4 6.4-.1 2.1-.6 2.8-2.1 2.8-1.8 0-2-.6-1.9-5 .2-5.1.5-5.5 2.6-4.2zM193 387c0 .5-.5 1-1.1 1-.5 0-.7-.5-.4-1 .3-.6.8-1 1.1-1 .2 0 .4.4.4 1zm22 4.1c0 1.8-.5 2.9-1.1 2.7-.6-.2-1-.7-1-1.1.1-.4.1-1.9.1-3.3s.4-2.3 1-1.9c.6.3 1 2 1 3.6z"/><path d="M153.7 120.4C150 122 140.9 132 141.2 134c.1.8-.1 2.1-.5 2.7-.6 1 .4 9.4 1.8 14.9.4 1.5 26.8.9 27.3-.6.2-.5.9-1 1.6-1 1.8 0 4.8-3.5 3.9-4.5-.5-.4-.2-.5.5-.1.7.5 1.1 1.4.8 2.2-.3.8.4 1.9 1.6 2.5 2.1 1.1 2.1 1.2.2 2.2-1 .6-2.8 1.1-3.8 1.2-2.8 0-3.3 2.5-.4 2.5 3.6 0 7.3-2.3 7.3-4.5 0-1.6.8-2.1 4.3-2.3 2.5-.2 4.2.1 4.2.7s-1.5 1.1-3.2 1.1c-2.6.1-3 .3-1.6 1 1.1.7 2.6.7 4.4 0 2-.8 2.9-.8 3.5.1.4.8 1.2.2 2.2-1.7 1-2 1.4-5.2 1.2-10.4-.4-8.8-1.2-12-3.1-12-.8 0-1.4-.9-1.4-2 0-1.4-.7-2-2.2-2-1.3 0-3.5-.6-5-1.4-1.9-1-2.9-1.1-3.7-.3-.8.8-1.1.8-1.1 0 0-1.8-5.7-3.6-9.2-2.9-4.4.9-5.6.9-10.3.3-2.3-.4-5.2-.1-6.8.7zm11.6 9.8c1.5.5 2.7 1.6 2.7 2.3 0 1.3-5.7 3.2-6.7 2.2-.3-.3-3 .3-6 1.4-2.9 1.2-6.2 1.8-7.1 1.4-1.4-.6-1-1.3 2.6-4.5 2.4-2.1 5.3-4.1 6.5-4.3 2.2-.4 3.1-.3 8 1.5zM203.5 129c.3.5.8 1 1.1 1 .2 0 .4-.5.4-1 0-.6-.5-1-1.1-1-.5 0-.7.4-.4 1z"/><path d="M174 150.5c0 .8.2 1.5.4 1.5s.6-.7 1-1.5c.3-.8.1-1.5-.4-1.5-.6 0-1 .7-1 1.5zM163 156.8c0 1.4 1.1 2.1 2.6 1.5.8-.3 1.1-.9.8-1.4-.7-1.1-3.4-1.2-3.4-.1zM245.5 221c-.9 1.5 1.6 4.3 2.7 3.2 1-1 0-4.2-1.2-4.2-.5 0-1.2.5-1.5 1zM189.5 254.2c-.3.7-.1 2.6.4 4.3l.8 3 1.3-2.7c1.3-2.8.8-5.8-1-5.8-.6 0-1.3.6-1.5 1.2zM296.2 182c0 1.4.2 1.9.5 1.2.2-.6.2-1.8 0-2.5-.3-.6-.5-.1-.5 1.3zM290 189c0 .5.7 1 1.6 1 .8 0 1.2-.5.9-1-.3-.6-1-1-1.6-1-.5 0-.9.4-.9 1z"/></svg>